<svg width="48" height="34" viewBox="0 0 48 34" fill="none" xmlns="http://www.w3.org/2000/svg">
<path d="M2.66667 33.1539C1.91111 33.1539 1.27822 32.8954 0.768 32.3785C0.256 31.8634 0 31.2244 0 30.4616C0 29.6988 0.256 29.0598 0.768 28.5447C1.27822 28.0277 1.91111 27.7693 2.66667 27.7693H45.3333C46.0889 27.7693 46.7218 28.0277 47.232 28.5447C47.744 29.0598 48 29.6988 48 30.4616C48 31.2244 47.744 31.8634 47.232 32.3785C46.7218 32.8954 46.0889 33.1539 45.3333 33.1539H2.66667ZM2.66667 19.6923C1.91111 19.6923 1.27822 19.4339 0.768 18.917C0.256 18.4018 0 17.7629 0 17C0 16.2372 0.256 15.5973 0.768 15.0804C1.27822 14.5653 1.91111 14.3077 2.66667 14.3077H45.3333C46.0889 14.3077 46.7218 14.5653 47.232 15.0804C47.744 15.5973 48 16.2372 48 17C48 17.7629 47.744 18.4018 47.232 18.917C46.7218 19.4339 46.0889 19.6923 45.3333 19.6923H2.66667ZM2.66667 6.23081C1.91111 6.23081 1.27822 5.97324 0.768 5.45811C0.256 4.94119 0 4.30132 0 3.5385C0 2.77568 0.256 2.13581 0.768 1.61888C1.27822 1.10376 1.91111 0.846191 2.66667 0.846191H45.3333C46.0889 0.846191 46.7218 1.10376 47.232 1.61888C47.744 2.13581 48 2.77568 48 3.5385C48 4.30132 47.744 4.94119 47.232 5.45811C46.7218 5.97324 46.0889 6.23081 45.3333 6.23081H2.66667Z" fill="black"/>
</svg>
