<svg width="41" height="40" viewBox="0 0 41 40" fill="none" xmlns="http://www.w3.org/2000/svg">
<path d="M18.1482 1.16429C19.3894 0.444284 20.9212 0.444285 22.1624 1.16429L28.8053 5.01776L35.4639 8.84395C36.7081 9.55886 37.474 10.8854 37.471 12.3203L37.4553 20L37.471 27.6797C37.474 29.1146 36.7081 30.4411 35.4639 31.1561L28.8053 34.9822L22.1624 38.8357C20.9212 39.5557 19.3894 39.5557 18.1482 38.8357L11.5053 34.9822L4.84662 31.1561C3.60247 30.4411 2.83658 29.1146 2.83952 27.6797L2.85527 20L2.83952 12.3203C2.83658 10.8854 3.60247 9.55886 4.84662 8.84395L11.5053 5.01776L18.1482 1.16429Z" fill="#F6B191"/>
<g clip-path="url(#clip0_470_4489)">
<path d="M20.1553 15L23.4886 20L27.6553 16.6667L25.9886 25H14.3219L12.6553 16.6667L16.8219 20L20.1553 15Z" fill="white" stroke="white" stroke-width="1.5" stroke-linecap="round" stroke-linejoin="round"/>
</g>
<defs>
<clipPath id="clip0_470_4489">
<rect width="20" height="20" fill="white" transform="translate(10.1553 10)"/>
</clipPath>
</defs>
</svg>
